<svg xmlns="http://www.w3.org/2000/svg"  viewBox="0 0 100 100" width="100px" height="100px" baseProfile="basic"><path fill="#316db0" d="M88.238,37.464c-0.242-7.739,1.55-19.733-8.069-21.641c-4.317-0.856-9.21-0.136-13.588-0.087	c-5.285,0.059-10.571,0.119-15.856,0.178c-9.239,0.104-18.656-0.306-27.88,0.588c-3.131-0.635-6.653,0.583-9.187,4.221	c-1.197,1.719-1.355,3.919-0.798,5.966c-0.51,3.965-0.098,8.438-0.188,11.617c-0.196,6.96-0.362,13.924-0.391,20.888	c-0.028,6.584-0.68,14.043,6.57,16.744c3.478,1.295,7.694,0.963,11.337,1.013c4.612,0.063,9.223-0.078,13.833-0.24	c9.199-0.324,18.425-0.79,27.617-0.028c7.912,0.656,16.543,0.168,17.424-10.263C89.856,57.013,88.534,46.903,88.238,37.464z"/><path fill="#99c0d3" d="M57.444,49.731c-1.588-3.271-3.73-6.156-6.138-8.824c-0.594-0.876-1.188-1.751-1.786-2.624 c-1.281-1.866-2.513-4.12-4.131-5.711c-1.36-1.336-3.832-2.285-5.614-1.273c-1.796,1.02-3.084,3.494-4.323,5.111 c-1.37,1.788-2.741,3.575-4.109,5.363c-2.701,3.53-5.357,7.097-7.386,11.066c-0.164,0.321-0.261,0.676-0.303,1.04 c-1.389,1.893-0.23,4.799,2.307,4.81c9.02,0.039,18.041,0.077,27.061,0.116c1.087,0.005,1.854-0.48,2.324-1.165 c0.297-0.032,0.593-0.061,0.89-0.093c1.481-0.159,3.131-1.236,2.971-2.971c-0.126-1.367-0.647-2.361-1.412-3.097 C57.843,50.944,57.747,50.353,57.444,49.731z"/><path fill="#c4dceb" d="M74.962,26.563c-0.881-1.578-2.428-2.907-4.176-3.6c-2.082-0.825-4.686-0.459-6.248,1.217 c-1.453,1.56-2.183,4.83-1.423,6.868c1.591,4.265,7.052,5.449,10.529,2.006C75.693,31.024,76.093,28.589,74.962,26.563z"/><path fill="#c4dceb" d="M70.829,50.05c-1.213-1.26-5.41-6.346-6.35-7.7c-1.477-2.128-4.383-3.033-6.369-0.938	c-1.509,1.592-8.434,10.107-9.798,11.603c-1.712,1.878-0.546,4.239,1.257,4.869c0.542,0.526,1.165,0.901,1.974,1.069	c1.112,0.232,14.8-0.08,16.753-0.329c2.191-0.279,3.944-0.194,4.997-2.57C74.325,53.724,72.335,51.615,70.829,50.05z"/><path fill="#733d7e" d="M63.359,75.325c-2.607,0.014-5.205,0.096-7.8,0.252c0.167-3.084,0.012-6.166-0.009-9.254	c-0.016-2.34-1.91-3.455-3.725-3.364c-0.926-0.295-1.977-0.222-2.858,0.208c-0.898-0.378-1.976-0.271-2.889,0.168	c-0.756,0.091-1.472,0.49-1.842,1.19c-0.328,0.621-0.393,1.336-0.214,1.978c-0.33,2.419,0.045,4.763,0.138,7.212	c-0.016,0.81-0.005,1.619,0.004,2.43c-2.295-0.088-4.59-0.259-6.89-0.272c-1.775-0.01-2.566,1.506-2.384,2.871	c-0.088,0.849,0.215,1.738,1.122,2.335c1.505,0.99,2.646,2.549,3.784,3.92c1.231,1.483,2.557,2.857,3.945,4.194	c1.089,1.049,2.09,2.129,3.143,3.21c1.084,1.112,2.44,2.165,4.093,1.725c1.816-0.484,3.196-2.216,4.346-3.909	c3.274-3.115,5.834-6.917,9.073-10.078c0.017-0.016,0.026-0.034,0.042-0.05C66.522,79.101,66.168,75.31,63.359,75.325z"/><g><path fill="none" d="M47.686,93.407c1.084,1.112,2.44,2.165,4.093,1.725c1.816-0.484,3.196-2.216,4.346-3.909 c3.274-3.115,9.1-10.112,9.116-10.128c1.387-0.658,1.685-2.553,0.905-3.746c2.099,0.062,4.197,0.166,6.293,0.339 c7.912,0.656,16.543,0.168,17.424-10.263c0.794-9.406-0.529-19.517-0.824-28.956c-0.242-7.739,1.55-19.733-8.069-21.641 c-4.317-0.856-9.21-0.136-13.588-0.087c-5.285,0.059-10.571,0.119-15.856,0.178c-9.239,0.104-18.656-0.306-27.88,0.588 c-3.131-0.635-6.653,0.583-9.187,4.221c-1.197,1.719-1.355,3.919-0.798,5.966c-0.51,3.965-0.098,8.438-0.188,11.617 c-0.196,6.96-0.362,13.924-0.391,20.888c-0.028,6.584-0.68,14.043,6.57,16.744c3.478,1.295,7.694,0.963,11.337,1.013"/><path d="M47.686,93.407c0,0,0.103,0.094,0.306,0.278c0.205,0.18,0.514,0.45,0.96,0.739c0.441,0.285,1.048,0.601,1.804,0.645 c0.751,0.049,1.61-0.281,2.395-0.886c0.792-0.605,1.507-1.491,2.201-2.529l0.26-0.398c0.089-0.135,0.19-0.322,0.334-0.449 c0.229-0.243,0.463-0.491,0.701-0.744c0.466-0.506,0.942-1.042,1.431-1.605c0.978-1.126,2.007-2.356,3.09-3.679 c1.086-1.351,2.237-2.784,3.451-4.294l0.056-0.07l0.191-0.106c0.185-0.103,0.341-0.242,0.468-0.428 c0.125-0.214,0.229-0.356,0.258-0.774c0.22-0.619,0.347-1.198,0.306-1.68c-0.018-0.124-0.038-0.247-0.08-0.346 c-0.054-0.06,0.038-0.09,0.106-0.127l0.205-0.11c0.276-0.154,0.563-0.315,0.873-0.488c1.615,0.046,3.281,0.093,4.997,0.141 c1.497,0.044,2.988,0.142,4.515,0.082c1.52-0.048,3.063-0.186,4.547-0.532c1.483-0.342,2.894-0.925,4.017-1.832 c1.129-0.899,1.948-2.139,2.42-3.625c0.477-1.506,0.631-3.102,0.694-4.997c0.126-3.682-0.019-7.532-0.295-11.529 c-0.267-3.997-0.661-8.142-0.934-12.453c-0.069-1.079-0.127-2.163-0.173-3.27c-0.04-1.131-0.05-2.245-0.055-3.343 c-0.011-2.193-0.013-4.353-0.197-6.441c-0.183-2.076-0.559-4.106-1.344-5.725c-0.79-1.619-1.904-2.748-3.574-3.284 c-0.445-0.102-0.835-0.249-1.317-0.346c-0.496-0.089-1.006-0.159-1.53-0.206c-1.045-0.099-2.135-0.124-3.255-0.109 c-2.243,0.029-4.593,0.231-7.081,0.311c-4.333,0.043-8.615,0.086-12.837,0.128c-4.189,0.041-8.399,0.036-12.458-0.029 c-4.068-0.049-8.038-0.103-11.899-0.013c-1.93,0.044-3.834,0.121-5.708,0.241l-1.411,0.105c-0.236,0.007-0.455,0.065-0.674,0.024 l-0.538-0.092c-0.17-0.041-0.345-0.04-0.517-0.067c-0.693-0.059-1.39,0.019-2.064,0.203c-1.351,0.368-2.593,1.219-3.596,2.358 c-0.251,0.267-0.502,0.61-0.702,0.876c-0.172,0.245-0.32,0.508-0.432,0.795c-0.227,0.57-0.347,1.216-0.342,1.89 c0.002,0.337,0.031,0.68,0.086,1.022l0.045,0.257l0.132,0.558c0.062,0.184-0.024,0.38-0.028,0.568l-0.058,0.451 c-0.102,0.808-0.167,1.629-0.211,2.454c-0.086,1.651-0.081,3.315-0.08,4.982c0.017,1.645-0.043,3.415-0.119,4.983 c-0.068,1.6-0.136,3.172-0.202,4.714c-0.138,3.078-0.271,6.037-0.397,8.864c-0.126,2.824-0.246,5.516-0.36,8.067 c-0.096,2.529-0.128,4.885,0.267,6.989c0.376,2.097,1.247,3.916,2.568,5.142c1.32,1.222,2.905,1.951,4.383,2.359 c3.001,0.779,5.508,0.729,7.16,0.824c1.664,0.069,2.542,0.105,2.542,0.105s-0.878,0.037-2.541,0.108 c-1.662,0.036-4.138,0.297-7.34-0.283c-1.585-0.318-3.36-0.96-4.968-2.253c-1.613-1.292-2.78-3.378-3.336-5.661 c-0.584-2.297-0.694-4.784-0.752-7.346c-0.064-2.545-0.073-5.243-0.102-8.078c-0.021-2.839-0.042-5.809-0.065-8.899 c-0.008-1.549-0.016-3.128-0.025-4.736c0.001-1.642-0.015-3.143-0.103-4.824c-0.073-1.66-0.152-3.381-0.133-5.168 c0.011-0.894,0.047-1.804,0.126-2.733l0.016-0.201c-0.002-0.028,0.008-0.054-0.003-0.081l-0.026-0.08l-0.086-0.389 c-0.105-0.523-0.174-1.06-0.199-1.609c-0.05-1.096,0.094-2.25,0.491-3.366c0.197-0.558,0.466-1.102,0.795-1.61 c0.321-0.473,0.599-0.872,0.952-1.287c1.342-1.636,3.196-3.074,5.447-3.771c1.117-0.348,2.315-0.518,3.514-0.456 c0.298,0.027,0.6,0.032,0.896,0.085l0.165,0.023c0.015,0.002,0.036-0.007,0.036-0.007l1.443-0.147 c1.946-0.179,3.914-0.309,5.898-0.403c3.97-0.189,8.001-0.216,12.075-0.235c4.084-0.003,8.162-0.051,12.383-0.128 c4.19-0.06,8.44-0.12,12.742-0.182c2.299-0.071,4.695-0.272,7.176-0.295c1.241-0.011,2.507,0.023,3.794,0.154 c0.643,0.063,1.292,0.156,1.943,0.279c0.661,0.133,1.377,0.366,2.055,0.56c0.682,0.233,1.347,0.612,2.007,0.932 c0.612,0.428,1.247,0.858,1.789,1.367c0.493,0.552,1.076,1.062,1.434,1.686l0.591,0.909c0.186,0.305,0.309,0.625,0.463,0.937 c1.159,2.529,1.505,5.05,1.684,7.418c0.164,2.377,0.113,4.654,0.076,6.839c-0.02,1.092-0.034,2.156-0.023,3.188 c0.029,1.065,0.058,2.124,0.087,3.177c0.155,4.228,0.422,8.391,0.556,12.469c0.143,4.076,0.145,8.073-0.148,11.939 c-0.139,1.872-0.398,4.001-1.128,5.932c-0.711,1.948-2.018,3.762-3.692,4.953c-1.665,1.209-3.54,1.833-5.308,2.149 c-1.779,0.318-3.492,0.371-5.13,0.336c-1.637-0.026-3.213-0.219-4.698-0.347c-0.737-0.061-1.463-0.122-2.179-0.182 c-0.298-0.027-0.593-0.054-0.886-0.08l-0.62-0.066c-0.223-0.022-0.43-0.043-0.629-0.063l-0.151-0.015 c-0.05-0.005-0.121-0.023-0.07,0.034c0.045,0.075,0.077,0.156,0.108,0.239c0.102,0.314,0.099,0.612,0.032,0.899 c-0.086,0.42-0.331,1-0.645,1.377c-0.317,0.405-0.725,0.717-1.166,0.915l0.247-0.176c-0.63,0.698-1.244,1.378-1.841,2.039 c-0.619,0.67-1.22,1.321-1.804,1.954c-1.175,1.257-2.293,2.423-3.357,3.49c-0.532,0.534-1.051,1.041-1.561,1.521 c-0.254,0.234-0.503,0.463-0.747,0.688c-0.193,0.163-0.362,0.459-0.573,0.711c-0.795,1.019-1.619,1.904-2.529,2.496 c-0.899,0.591-1.884,0.887-2.72,0.766c-0.831-0.118-1.429-0.504-1.856-0.831c-0.431-0.333-0.716-0.629-0.906-0.826 C47.78,93.509,47.686,93.407,47.686,93.407z"/></g></svg>