<svg xmlns="http://www.w3.org/2000/svg"  viewBox="0 0 50 50" width="50px" height="50px"><path fill="#99c93c" d="M3.628,28.833c0.214,3.479,1.933,6.63,3.599,9.618c0.821,1.473,1.763,2.912,2.958,4.111 c1.156,1.159,2.553,2.05,4.014,2.772c1.501,0.742,3.069,1.39,4.635,1.98c1.734,0.654,3.505,1.012,5.363,0.84 c6.398-0.591,12.667-3.796,16.797-8.728c3.927-4.691,5.964-10.819,4.667-16.898c-0.366-1.717-0.998-3.39-1.841-4.93 c-0.72-1.314-1.633-2.712-3.05-3.348c-1.352-0.607-3.094-0.415-4.018,0.831c-0.951,1.281-0.58,2.929-0.06,4.305 c1.243,3.291,2.24,6.698,1.861,10.256c-0.329,3.082-1.788,6.006-4.346,7.816c-1.368,0.968-2.875,1.767-4.358,2.542 c-1.479,0.773-3.048,1.482-4.716,1.713c-3.379,0.468-6.404-1.665-9.097-3.408c-1.328-0.86-2.635-1.81-3.619-3.066 c-1.015-1.294-1.629-2.859-2.088-4.423C9.394,27.637,8.353,23.9,9.874,20.75c2.436-5.045,7.701-9.624,13.484-9.381 c-0.007,0.663,0.001,1.323,0.038,1.978c0.063,1.109,0.536,2.25,1.689,2.601c1.138,0.347,1.991-0.486,2.717-1.224 c1.527-1.552,3.147-3.008,4.831-4.387c0.593-0.154,1.058-0.775,0.622-1.424c0,0,0,0,0,0c-0.05-0.13-0.119-0.248-0.211-0.34 c-0.035-0.035-0.077-0.047-0.114-0.075c-0.705-0.886-1.595-1.597-2.452-2.335c-1.048-0.902-2.096-1.803-3.144-2.705 c-0.781-0.672-1.83-1.587-2.879-0.832c-0.513,0.369-0.582,0.952-0.639,1.534c-0.059,0.607-0.107,1.215-0.153,1.823 c-0.001,0.008-0.001,0.015-0.002,0.023c-1.547,0.028-3.071,0.364-4.53,0.874c-1.606,0.562-3.179,1.251-4.725,1.959 c-1.464,0.671-2.904,1.418-4.206,2.373c-2.622,1.923-4.357,4.544-5.327,7.634c-0.482,1.536-0.763,3.122-0.965,4.716 C3.686,25.299,3.52,27.082,3.628,28.833z"/><path fill="#231f20" d="M23.32,6.576c-0.039,0.51-0.078,1.02-0.117,1.53c-0.009,0.122,0.062,0.27,0.146,0.354 c0.087,0.087,0.229,0.152,0.354,0.146c0.288-0.013,0.479-0.22,0.5-0.5c0.039-0.51,0.078-1.02,0.117-1.53 c0.009-0.122-0.062-0.27-0.146-0.354c-0.087-0.087-0.229-0.152-0.354-0.146C23.532,6.088,23.341,6.296,23.32,6.576L23.32,6.576z"/><path fill="#231f20" d="M22.917,10.309c0.029,0.222,0.029,0.447,0.001,0.669c0.006-0.044,0.012-0.089,0.018-0.133 c-0.018,0.131-0.045,0.259-0.081,0.386c-0.036,0.124-0.014,0.275,0.05,0.385c0.061,0.104,0.18,0.203,0.299,0.23 c0.128,0.029,0.272,0.023,0.385-0.05c0.11-0.071,0.193-0.171,0.23-0.299c0.11-0.382,0.15-0.794,0.098-1.188 c0.003-0.069-0.012-0.133-0.043-0.193c-0.02-0.062-0.055-0.116-0.103-0.161c-0.087-0.087-0.229-0.152-0.354-0.146 c-0.129,0.006-0.263,0.048-0.354,0.146C22.98,10.046,22.9,10.181,22.917,10.309L22.917,10.309z"/><path fill="#fff" d="M39.252,18.321c0.207,0.215,0.402,0.437,0.592,0.666c0.142,0.171,0.022-0.028-0.029-0.04 c0.035,0.008,0.11,0.148,0.132,0.179c0.087,0.121,0.171,0.243,0.252,0.367c0.163,0.249,0.315,0.504,0.455,0.766 c0.07,0.131,0.138,0.264,0.202,0.397c0.032,0.067,0.064,0.134,0.095,0.202c0.019,0.042,0.159,0.329,0.057,0.128 c-0.092-0.181,0.013,0.04,0.028,0.079c0.027,0.069,0.053,0.139,0.078,0.209c0.05,0.14,0.098,0.281,0.142,0.423 c0.088,0.284,0.164,0.571,0.228,0.862c0.032,0.145,0.06,0.291,0.085,0.438c0.013,0.073,0.023,0.147,0.035,0.22 c0.036,0.212-0.027-0.282-0.01-0.067c0.025,0.316,0.055,0.628,0.062,0.945c0.017,0.784,0.678,1.537,1.5,1.5 c0.798-0.036,1.519-0.66,1.5-1.5c-0.065-2.941-1.243-5.777-3.284-7.896c-0.545-0.566-1.58-0.589-2.121,0 C38.693,16.807,38.67,17.716,39.252,18.321L39.252,18.321z"/><path fill="#df4bb1" d="M22.986,34.606c-0.711-0.355-1.515-0.277-2.193,0.115c-0.024,0.014-0.046,0.036-0.07,0.051	c-0.063-1.218-0.472-2.409-1.556-2.859c-0.643-0.266-1.309-0.117-1.889,0.219c0.104-0.958-0.052-1.906-0.776-2.579	c-0.547-0.508-1.294-0.612-1.981-0.395c0.115-0.683,0.133-1.377-0.039-2.073C14.17,25.82,13.27,24.745,12,24.383	c-1.24-0.353-1.769,1.576-0.532,1.929c0.696,0.198,1.073,0.917,1.141,1.602c0.105,1.06-0.359,2.135-0.73,3.101	c-0.282,0.732,0.551,1.419,1.23,1.23c0.49-0.136,0.887-0.389,1.283-0.697c0.171-0.133,0.337-0.283,0.523-0.395	c0.051-0.031,0.099-0.066,0.148-0.098c0.025-0.017,0.058-0.019,0.086-0.02c0.018,0.037,0.074,0.109,0.086,0.148	c0.053,0.179,0.076,0.348,0.074,0.535c-0.004,0.603-0.2,1.232-0.446,1.777c-0.333,0.735,0.073,1.413,0.863,1.505	c1.168,0.136,1.732-0.814,2.68-1.219c0.009-0.004,0.01-0.005,0.016-0.008c0.106,0.115,0.186,0.479,0.224,0.645	c0.166,0.719,0.098,1.438-0.111,2.139c-0.213,0.713,0.507,1.462,1.23,1.23c0.504-0.161,0.907-0.426,1.315-0.76	c0.213-0.174,0.592-0.643,0.892-0.653c0.256-0.008,0.402,0.32,0.447,0.532c0.123,0.577-0.185,1.248-0.376,1.779	c-0.437,1.213,1.495,1.735,1.929,0.532C24.536,37.646,24.781,35.502,22.986,34.606z"/><path fill="#429ad4" d="M39.316,7.394c-0.83,0-1.66,0-2.489,0c-0.523,0-1.024,0.46-1,1c0.024,0.542,0.439,1,1,1 c0.83,0,1.66,0,2.489,0c0.523,0,1.024-0.46,1-1C40.292,7.852,39.877,7.394,39.316,7.394L39.316,7.394z"/><path fill="#429ad4" d="M35.352,3.969c-0.667,0.421-1.288,0.931-1.817,1.517c-0.177,0.197-0.293,0.437-0.293,0.707 c0,0.245,0.109,0.538,0.293,0.707c0.191,0.175,0.441,0.305,0.707,0.293C34.5,7.181,34.772,7.097,34.95,6.9 c0.307-0.34,0.643-0.653,1.005-0.934c-0.067,0.052-0.135,0.104-0.202,0.156c0.196-0.152,0.4-0.294,0.61-0.426 c0.217-0.137,0.39-0.347,0.46-0.598c0.066-0.239,0.036-0.558-0.101-0.771c-0.138-0.214-0.343-0.401-0.598-0.46 C35.866,3.809,35.582,3.824,35.352,3.969L35.352,3.969z"/><path fill="#429ad4" d="M31.545,1.712c-0.34,0.663-0.633,1.353-0.873,2.058c-0.081,0.237-0.023,0.56,0.101,0.771 C30.894,4.748,31.132,4.946,31.37,5c0.256,0.058,0.543,0.046,0.771-0.101c0.227-0.146,0.372-0.341,0.46-0.598 C32.703,4,32.817,3.703,32.94,3.409c-0.034,0.08-0.067,0.159-0.101,0.239c0.133-0.314,0.277-0.623,0.433-0.927 c0.123-0.239,0.174-0.506,0.101-0.771c-0.064-0.232-0.243-0.483-0.46-0.598C32.681,1.23,32.4,1.169,32.143,1.252 C31.903,1.33,31.664,1.48,31.545,1.712L31.545,1.712z"/></svg>