<svg xmlns="http://www.w3.org/2000/svg"  viewBox="0 0 53 53" width="66px" height="66px"><g id="_x32_78"><path fill="#5bc658" d="M44.6830673,23.4287529l-8.0499878,22.6999512 c-0.4400024,1.2399902-1.2800293,2.2200928-2.3300171,2.8500977c-1.3499756,0.8199463-3.0499878,1.0500488-4.6599731,0.4699707 l-1.3300171-0.4699707l-15.0300283-5.3300781l-7.6999512-2.7299805c-2.8500369-1.0200195-4.3400269-4.1499023-3.3300173-7 l8.0599976-22.6899414c1.0100098-2.8500977,4.1400146-4.3400879,6.9899893-3.3300781l8.5900269,3.0500488L41.36306,16.4387627 C44.2130966,17.4487724,45.7030869,20.5787773,44.6830673,23.4287529z"/><path fill="#fff" d="M6.5708246,33.0984306c-0.0834961,0-0.1679688-0.0136719-0.2509766-0.0429688 c-0.390625-0.1386719-0.5942383-0.5673828-0.4555664-0.9580078l2.5644531-7.21875 c0.1381836-0.390625,0.5668945-0.59375,0.9575195-0.4560547c0.390625,0.1386719,0.5942383,0.5673828,0.4555664,0.9580078 l-2.5644531,7.21875C7.1684809,32.9070244,6.8794184,33.0984306,6.5708246,33.0984306z" opacity=".3"/><path fill="#fff" d="M10.1518793,23.0173759c-0.0834961,0-0.168457-0.0136719-0.2514648-0.0429688 c-0.3901367-0.1396484-0.59375-0.5683594-0.4550781-0.9580078l0.2587891-0.7275391 c0.1386719-0.390625,0.5683594-0.5947266,0.9580078-0.4560547c0.3901367,0.1396484,0.59375,0.5683594,0.4550781,0.9580078 l-0.2587891,0.7275391C10.7490473,22.8259697,10.4604731,23.0173759,10.1518793,23.0173759z" opacity=".3"/><path fill="#fff" d="M36.6312332,27.1208878l-0.0000038,0.0000019c-0.2376328,0.6695633-0.9730644,1.0197086-1.6426277,0.7820721 l-19.969595-7.0874634c-0.6695623-0.2376366-1.0197086-0.9730682-0.7820721-1.6426315l0.000001-0.0000019 c0.2376366-0.6695633,0.9730673-1.0197086,1.6426306-0.7820721l19.969593,7.0874634 C36.5187225,25.7158928,36.8688698,26.4513245,36.6312332,27.1208878z"/><path fill="#fff" d="M34.6683998,32.6513519v0.0000038c-0.2376366,0.6695633-0.9730682,1.0197105-1.6426315,0.782074 l-19.969593-7.0874653c-0.6695633-0.2376366-1.0197096-0.9730682-0.782073-1.6426315l0.000001-0.0000019 c0.2376366-0.6695633,0.9730673-1.0197086,1.6426306-0.7820721l19.969593,7.0874634 C34.5558891,31.2463589,34.9060364,31.9817905,34.6683998,32.6513519z"/><path fill="#fff" d="M32.7055664,38.1818199v0.0000038c-0.2376366,0.6695633-0.9730682,1.0197067-1.6426315,0.7820702 l-19.969593-7.0874634c-0.6695633-0.2376366-1.0197086-0.9730682-0.7820721-1.6426296l0.000001-0.0000038 c0.2376356-0.6695633,0.9730663-1.0197086,1.6426296-0.7820721l19.969595,7.0874634 C32.5930557,36.776825,32.943203,37.5122566,32.7055664,38.1818199z"/><path fill="#49a247" d="M44.6830673,23.4287529l-8.0499878,22.6999512 c-0.4400024,1.2399902-1.2800293,2.2200928-2.3300171,2.8500977h-5.9899902l-15.0300283-5.3300781 c-0.1299438-0.5300293-0.1999512-1.0799561-0.1999512-1.6499023V17.9187431c0-3.8399649,3.1300039-6.9699697,6.9799795-6.9699697 h5.8300171L41.36306,16.4387627C44.2130966,17.4487724,45.7030869,20.5787773,44.6830673,23.4287529z"/><path fill="#49a247" d="M37.2930527,14.9988222c-0.2399902,2.4199209-2.289978,4.3199453-4.7699585,4.3199453 c-1.0200195,0-1.9900513-0.3199463-2.8200073-0.9200439c-0.4400024-0.3299561-0.5400391-0.9499512-0.210022-1.3999023 c0.3200073-0.4500732,0.9500122-0.5400391,1.3900146-0.2199707c0.4799805,0.3498535,1.0499878,0.539917,1.6400146,0.539917 c1.539978,0,2.789978-1.25,2.789978-2.789916v-0.2401123L37.2930527,14.9988222z"/><path fill="#f9b938" d="M51.0630722,17.9234753v24.0806255c0,3.0235939-2.451107,5.4747009-5.4747009,5.4747009H20.0591106 c-3.0235939,0-5.4747009-2.451107-5.4747009-5.4747009V17.9234753c0-3.0235949,2.451107-5.4747019,5.4747009-5.4747019h25.5292606 C48.6119652,12.4487734,51.0630722,14.8998804,51.0630722,17.9234753z"/><path fill="#fff" d="M17.5844955,27.5242119c-0.4140625,0-0.75-0.3359375-0.75-0.75v-1.1425781 c0-0.4140625,0.3359375-0.75,0.75-0.75s0.75,0.3359375,0.75,0.75v1.1425781 C18.3344955,27.1882744,17.998558,27.5242119,17.5844955,27.5242119z" opacity=".3"/><path fill="#fff" d="M17.5844955,22.6404228c-0.4140625,0-0.75-0.3359375-0.75-0.75v-3.9667969 c0-1.7783203,1.4467773-3.2246084,3.2246094-3.2246084h1.0415039c0.4140625,0,0.75,0.3359375,0.75,0.75 s-0.3359375,0.749999-0.75,0.749999h-1.0415039c-0.9511719,0-1.7246094,0.7734375-1.7246094,1.7246094v3.9667969 C18.3344955,22.3044853,17.998558,22.6404228,17.5844955,22.6404228z" opacity=".3"/><path fill="#fff" d="M45.1909409,16.1990166h-4.2207031c-0.4140625,0-0.75-0.3359365-0.75-0.749999s0.3359375-0.75,0.75-0.75 h4.2207031c0.4140625,0,0.75,0.3359375,0.75,0.75S45.6050034,16.1990166,45.1909409,16.1990166z" opacity=".3"/><path fill="#ecb021" d="M51.0630722,17.9187431V42.008831c0,3.0200195-2.4500122,5.4699707-5.4700317,5.4699707H20.0630722 c-1.9099731,0-3.5800171-0.9699707-4.5700064-2.4400635c0.669982,0.2900391,1.4100332,0.4500732,2.1799917,0.4500732h25.5300293 c3.0199585,0,5.4799805-2.4500732,5.4799805-5.4699707V15.9387636c0-1.1199951-0.3400269-2.1699219-0.9199829-3.0400391 C49.7030869,13.7388124,51.0630722,15.6687441,51.0630722,17.9187431z"/><path fill="#ecb021" d="M34.7869034,18.1001377c0,1.565567-1.2668533,2.8443108-2.8444557,2.8443108 c-1.5656395,0-2.8444557-1.2787437-2.8444557-2.8443108c0-1.565712,1.2788162-2.8444557,2.8444557-2.8444557 C33.52005,15.255682,34.7869034,16.5344257,34.7869034,18.1001377z"/><path fill="#fff" d="M44.7051926,25.5953312v0.0000019c0,0.7104836-0.5759583,1.2864437-1.2864418,1.2864437H22.2287331 c-0.7104836,0-1.2864437-0.5759602-1.2864437-1.2864437v-0.0000019c0-0.7104836,0.5759602-1.2864437,1.2864437-1.2864437 h21.1900177C44.1292343,24.3088875,44.7051926,24.8848476,44.7051926,25.5953312z"/><path fill="#fff" d="M44.7051926,31.4637871v0.0000019c0,0.7104816-0.5759583,1.2864437-1.2864418,1.2864437H22.2287331 c-0.7104836,0-1.2864437-0.5759621-1.2864437-1.2864437v-0.0000019c0-0.7104836,0.5759602-1.2864437,1.2864437-1.2864437 h21.1900177C44.1292343,30.1773434,44.7051926,30.7533035,44.7051926,31.4637871z"/><path fill="#fff" d="M44.7051926,37.3322411v0.0000038c0,0.7104836-0.5759583,1.2864418-1.2864418,1.2864418H22.2287331 c-0.7104836,0-1.2864437-0.5759583-1.2864437-1.2864418v-0.0000038c0-0.7104836,0.5759602-1.2864418,1.2864437-1.2864418 h21.1900177C44.1292343,36.0457993,44.7051926,36.6217575,44.7051926,37.3322411z"/><g><path fill="#e4e3ff" d="M44.7030869,25.5987968c0,0.7099609-0.5700073,1.2799072-1.2800293,1.2799072H22.2330551 c-0.5499878,0-1.0199585-0.3399658-1.2000122-0.8199463c0.1900024,0.1199951,0.4200439,0.1900635,0.6700439,0.1900635h21.1900024 c0.7099609,0,1.289978-0.5800781,1.289978-1.2900391c0-0.1600342-0.0299683-0.3200684-0.0900269-0.4599609 C44.4630966,24.7288017,44.7030869,25.1387138,44.7030869,25.5987968z"/><path fill="#e4e3ff" d="M44.7030869,31.468792c0,0.7099609-0.5700073,1.2800293-1.2800293,1.2800293H22.2330551 c-0.5499878,0-1.0199585-0.3400879-1.2000122-0.8200684c0.1900024,0.1199951,0.4200439,0.1899414,0.6700439,0.1899414h21.1900024 c0.7099609,0,1.289978-0.5799561,1.289978-1.289917c0-0.1600342-0.0299683-0.3199463-0.0900269-0.460083 C44.4630966,30.5887871,44.7030869,30.9988213,44.7030869,31.468792z"/><path fill="#e4e3ff" d="M44.7030869,37.3287773c0,0.7099609-0.5700073,1.289917-1.2800293,1.289917H22.2330551 c-0.5499878,0-1.0199585-0.3398438-1.2000122-0.8299561c0.1900024,0.1199951,0.4200439,0.1900635,0.6700439,0.1900635h21.1900024 c0.7099609,0,1.289978-0.5700684,1.289978-1.2800293c0-0.1600342-0.0299683-0.3200684-0.0900269-0.4599609 C44.4630966,36.4587822,44.7030869,36.8686943,44.7030869,37.3287773z"/></g><g><path fill="#e4e3ff" d="M37.3130722,8.0188417v6.5100098c0,0.1599121-0.0100098,0.3099365-0.0200195,0.4699707 c-0.2399902,2.4199209-2.289978,4.3199453-4.7699585,4.3199453c-1.0200195,0-1.9900513-0.3199463-2.8200073-0.9200439 c-0.4400024-0.3299561-0.5400391-0.9499512-0.210022-1.3999023c0.3200073-0.4500732,0.9500122-0.5400391,1.3900146-0.2199707 c0.4799805,0.3498535,1.0499878,0.539917,1.6400146,0.539917c1.539978,0,2.789978-1.25,2.789978-2.789916V8.0188417 c0-1.5400391-1.25-2.7900391-2.789978-2.7900391c-1.5300293,0-2.7800293,1.25-2.7800293,2.7900391v4.2999268l-2-0.710083 V8.0188417c0-2.6401367,2.1500244-4.7900391,4.7800293-4.7900391C35.1630478,3.2288024,37.3130722,5.378705,37.3130722,8.0188417 z"/></g><g><path fill="#e5a320" d="M34.1630478,16.3287773c-0.3899536-0.2000732-0.8299561-0.3099365-1.2999878-0.3099365 c-1.5599976,0-2.8399658,1.2799072-2.8399658,2.8398438c0,0.670166,0.2299805,1.2900391,0.6199951,1.7700195 c-0.9200439-0.4699707-1.5500488-1.4299316-1.5500488-2.5299072c0-1.5600586,1.2800293-2.8399649,2.8500366-2.8399649 C32.8530502,15.258832,33.6530991,15.6787539,34.1630478,16.3287773z"/></g></g></svg>