<svg xmlns="http://www.w3.org/2000/svg"  viewBox="0 0 50 50" width="50px" height="50px"><path fill="#99c93c" d="M28.604,12.825c-0.143-0.67-0.632-1.2-1.299-1.373c-0.609-0.158-1.283-0.185-1.908-0.255 c-0.664-0.074-1.33-0.136-1.997-0.185c-0.615-0.045-1.232-0.08-1.848-0.104c-0.681-0.027-1.429-0.126-1.973,0.381 c-0.473,0.442-0.521,1.071-0.598,1.673c-0.086,0.664-0.163,1.329-0.232,1.996c-0.079,0.768-0.176,1.63,0.568,2.123 c0.162,0.107,0.344,0.175,0.535,0.226c0.247,0.097,0.516,0.156,0.792,0.164c0.571,0.016,1.144,0.005,1.716-0.001 c0.546,0.011,1.092,0.013,1.638-0.006c0.888,0,1.776,0.001,2.664-0.005c0.715-0.005,1.319-0.276,1.518-1.019 c0.166-0.618,0.227-1.285,0.337-1.916C28.617,13.959,28.726,13.396,28.604,12.825z M26.675,13.354 C26.676,13.356,26.675,13.353,26.675,13.354L26.675,13.354z"/><path fill="#99c93c" d="M28.604,4.825c-0.143-0.67-0.632-1.2-1.299-1.373c-0.609-0.158-1.283-0.185-1.908-0.255 c-0.664-0.074-1.33-0.136-1.997-0.185c-0.615-0.045-1.232-0.08-1.848-0.104c-0.681-0.027-1.429-0.126-1.973,0.381 c-0.473,0.442-0.521,1.071-0.598,1.673c-0.086,0.664-0.163,1.329-0.232,1.996c-0.079,0.768-0.176,1.63,0.568,2.123 c0.162,0.107,0.344,0.175,0.535,0.226c0.247,0.097,0.516,0.156,0.792,0.164c0.571,0.016,1.144,0.005,1.716-0.001 c0.546,0.011,1.092,0.013,1.638-0.006c0.888,0,1.776,0.001,2.664-0.005c0.715-0.005,1.319-0.276,1.518-1.019 c0.166-0.618,0.227-1.285,0.337-1.916C28.617,5.959,28.726,5.396,28.604,4.825z M26.675,5.354 C26.676,5.356,26.675,5.353,26.675,5.354L26.675,5.354z"/><path fill="#99c93c" d="M33.498,26.114c-0.859-0.481-2.104-0.473-3.061-0.541c-0.725-0.052-1.451-0.052-2.176-0.031 c0.126-0.624,0.236-1.252,0.314-1.887c0.092-0.741,0.281-1.657,0.087-2.391c-0.235-0.884-1.233-1.109-1.998-1.322 c-0.102-0.029-0.208-0.048-0.311-0.075c-0.426-0.176-0.897-0.267-1.378-0.309c-0.034-0.003-0.069-0.002-0.103-0.005 c-0.993-0.168-2-0.261-3.002-0.258c-0.82,0.003-1.687,0.029-2.491,0.2c-0.923,0.196-1.303,0.95-1.413,1.811 c-0.154,1.202-0.257,2.411-0.34,3.621c-0.037,0.005-0.074,0.007-0.111,0.012c-0.96,0.121-1.916,0.269-2.865,0.456 c-0.795,0.156-1.611,0.34-2.245,0.878c-0.845,0.717-0.894,1.557-0.604,2.375c0.096,0.579,0.464,1.082,0.881,1.536 c0.159,0.213,0.322,0.417,0.478,0.605c1.144,1.387,2.374,2.704,3.679,3.94c1.315,1.246,2.71,2.405,4.163,3.488 c1.271,0.948,3.188,2.811,4.773,1.499c1.379-1.141,2.567-2.665,3.699-4.044c1.183-1.441,2.301-2.937,3.337-4.487 C33.7,29.858,35.642,27.313,33.498,26.114z"/><path fill="#fff" d="M16.975,32.567c1.489,1.418,3.062,2.736,4.695,3.984c0.287,0.22,0.826,0.242,1.156,0.151 c0.348-0.096,0.725-0.365,0.896-0.689c0.184-0.348,0.276-0.77,0.151-1.156c-0.05-0.119-0.101-0.239-0.151-0.358 c-0.133-0.225-0.313-0.405-0.538-0.538c-0.087-0.067-0.175-0.134-0.262-0.201c0.101,0.078,0.202,0.156,0.304,0.235 c-1.436-1.112-2.814-2.296-4.13-3.549c-0.569-0.541-1.564-0.607-2.121,0C16.436,31.033,16.368,31.989,16.975,32.567L16.975,32.567 z"/><path fill="#231f20" d="M18.133,25.251c0.123-0.021,0.246-0.04,0.37-0.056c-0.044,0.006-0.089,0.012-0.133,0.018 c0.416-0.055,0.834-0.083,1.253-0.087c0.261-0.002,0.512-0.229,0.5-0.5c-0.012-0.269-0.22-0.502-0.5-0.5 c-0.589,0.005-1.175,0.062-1.755,0.161c-0.116,0.02-0.241,0.132-0.299,0.23c-0.063,0.107-0.089,0.265-0.05,0.385 c0.039,0.121,0.114,0.238,0.23,0.299C17.873,25.267,17.993,25.274,18.133,25.251L18.133,25.251z"/><path fill="#99c93c" d="M46.319,42.68c-0.185-0.88-1.187-1.21-2.23-1.298c-1.526-0.129-3.085-0.143-4.618-0.196 c-1.651-0.057-3.303-0.102-4.955-0.136c-6.485-0.133-12.975-0.089-19.456,0.13c-3.674,0.124-7.344,0.306-11.008,0.542 c-0.344,0.022-0.542,0.227-0.482,0.487C3.698,42.766,3.771,46.78,4,46.919c0.451,0.273,9.246-0.228,12.236-0.25 c6.022-0.045,12.045-0.09,18.067-0.135c2.733-0.02,10.277,0.042,11.26,0.083c0.284,0.012,0.481-0.186,0.5-0.385 c0.06-0.636,0.119-1.271,0.179-1.907C46.293,43.792,46.431,43.213,46.319,42.68z"/><path fill="#df4bb1" d="M9.961,20.648c1.334,0.841,2.667,1.681,4.001,2.522c0.443,0.279,1.122,0.108,1.368-0.359 c0.26-0.493,0.114-1.07-0.359-1.368c-1.334-0.841-2.667-1.681-4.001-2.522c-0.443-0.279-1.122-0.108-1.368,0.359 C9.342,19.773,9.488,20.35,9.961,20.648L9.961,20.648z"/><path fill="#df4bb1" d="M11.884,14.593c-0.097-0.082-0.105-0.086-0.023-0.012c0.073,0.082,0.071,0.074-0.008-0.025 c0.06,0.086,0.113,0.175,0.163,0.268c0.102,0.189,0.193,0.384,0.288,0.576c0.219,0.443,0.438,0.886,0.658,1.329 c0.446,0.901,0.892,1.803,1.338,2.704c0.233,0.47,0.936,0.637,1.368,0.359c0.481-0.31,0.607-0.866,0.359-1.368 c-0.476-0.962-0.952-1.925-1.429-2.887c-0.234-0.474-0.468-0.947-0.703-1.421c-0.248-0.502-0.532-0.926-1.001-1.249 c-0.432-0.297-1.129-0.095-1.368,0.359C11.256,13.734,11.422,14.276,11.884,14.593L11.884,14.593z"/><path fill="#ff9600" d="M32.547,21.681c0.078-0.243,0.162-0.484,0.256-0.721c0.009-0.023,0.098-0.24,0.046-0.117 c-0.046,0.109,0.025-0.057,0.034-0.076c0.052-0.117,0.105-0.232,0.161-0.347c0.229-0.472,0.491-0.928,0.783-1.363 c0.071-0.106,0.144-0.211,0.218-0.314c0.033-0.046,0.067-0.092,0.1-0.137c0.015-0.02,0.157-0.203,0.076-0.102 c-0.071,0.09,0.041-0.05,0.054-0.065c0.045-0.055,0.09-0.11,0.135-0.164c0.082-0.098,0.166-0.194,0.251-0.289 c0.351-0.39,0.73-0.753,1.131-1.092c0.401-0.338,0.375-1.07,0-1.414c-0.427-0.392-0.986-0.361-1.414,0 c-1.762,1.485-3.058,3.48-3.76,5.67c-0.16,0.498,0.187,1.114,0.698,1.23C31.864,22.504,32.376,22.214,32.547,21.681L32.547,21.681 z"/><path fill="#ff9600" d="M34.999,24.308c2.032-1.083,4.318-1.803,6.578-2.05c0.537-0.059,1-0.418,1-1 c0-0.495-0.46-1.059-1-1c-2.664,0.292-5.221,1.061-7.588,2.323c-0.476,0.254-0.624,0.915-0.359,1.368 C33.912,24.431,34.52,24.563,34.999,24.308L34.999,24.308z"/></svg>