<svg xmlns="http://www.w3.org/2000/svg"  viewBox="0 0 134 134" width="50px" height="50px"><path fill="#f7941e" d="M124.77006,26.27269c-0.82558,0.82968-1.64178,1.65283-2.44896,2.48579 c-0.06595,0.05505-0.12151,0.11886-0.1768,0.17468c-15.79207,16.02547-32.05571,32.52867-48.97236,49.70753L3.08151,77.6089 c9.14844-6.93909,17.8439-14.00504,26.04823-21.16938c11.1203-9.68797,21.39669-19.56716,30.78707-29.57974 c1.49022-1.60149,3.08356-3.27893,5.45575-4.08977c1.57657-0.53315,3.35961-0.62975,5.09294-0.7114 c17.49862-0.82434,34.71063-0.8666,51.57782-0.16036C124.88796,22.01839,126.47231,24.53908,124.77006,26.27269z"/><path fill="#fff" d="M77.7644,109.79811c-0.02167,0.60164-0.10673,1.29525-0.72363,1.68607 c-0.4594,0.27951-1.08029,0.30621-1.64246,0.32236c-16.04606,0.3997-32.3758,0.81599-48.99615,1.23924 c-4.02143,0.10025-8.13387,0.19225-12.14849-0.03823c-2.22428-0.1268-4.41621-0.35305-6.55055-0.72897 c-2.10574-0.37088-3.65977-2.16869-3.76972-4.30402c-0.18005-3.4967-0.77362-8.55239-0.81925-9.35553 C2.80627,93.51727,2.4881,88.42909,2.18297,83.37249c-0.11118-1.70837-0.09971-3.65291,1.58874-4.91489 c0.57584-0.438,1.29936-0.73676,2.06484-0.96198c0.50938-0.14406,1.05209-0.25114,1.58035-0.3399 c4.58844-0.75971,9.15434-0.15822,13.57144,0.38584c4.45976,0.54169,8.61718,0.55395,13.13313,0.52353 c11.82641-0.08216,23.41612-0.77025,34.84365-0.29731c2.21906,0.08309,4.42989,0.2187,6.63274,0.40751 C77.4556,88.50893,78.19563,99.08661,77.7644,109.79811z"/><path fill="#e6e7e8" d="M128.80969,57.73851c-1.81693,3.75602-5.24063,6.91094-8.57748,10.03024 c-8.33501,7.80212-16.52039,15.93291-24.51572,24.38106c-5.34938,5.62924-10.61454,11.41182-15.79195,17.32265 c-2.25762-2.95605-2.95324-6.13172-3.52682-9.5807c-0.8819-5.33586-1.5737-10.66721-2.06435-16.00101 c-0.16224-1.78699-0.31-3.61573,0.21975-5.38487c0.74294-2.48743,2.64329-3.76132,4.82088-5.59982 c2.37225-2.01225,4.65706-4.0685,6.86588-6.15994c4.38855-4.1633,8.47749-8.4479,12.45459-12.73062 c4.8334-5.20013,9.49815-10.40691,14.35903-15.43621c2.30991-2.38597,4.55624-4.81069,6.85414-7.18033 c1.69981-1.77013,3.43533-3.51545,5.2578-5.18607c0.3728-0.35439,0.75597-0.70773,1.1494-1.06081 c0.08213,0.41847,0.16463,0.82873,0.24689,1.24709c0.90564,4.63801,1.80381,9.30124,2.71629,13.9744 C130.39714,46.13929,131.49144,52.23214,128.80969,57.73851z"/><path fill="#fff" d="M88.99007,60.49421c-0.33678-0.27603-0.73406-0.52434-1.19269-0.73626 c-3.27057-1.51121-9.76256-0.66403-13.64912-0.72458c-8.91073-0.13882-17.90739-0.27899-26.99125-0.42051 c-3.58216-0.05581-7.17953-0.09838-10.788-0.16807c-2.3976-0.0463-5.04838-1.39725-7.46586-0.97055 c-1.69588,0.29933-2.52911,1.48189-3.63619,2.42186c-3.9116,3.32117-8.04141,6.55813-12.10226,9.87033 c-2.08923,1.70406-4.10198,3.52294-6.32457,5.15772c-1.43508,1.05554-3.36276,2.05841-3.56305,3.70042 c-0.17335,1.42117,1.57226,3.08653,3.0591,3.75818c0.41866,0.18912,5.36694,0.80911,5.01376,0.18222 c1.42237,2.52468,6.06933,3.84815,9.28132,1.87739c1.91682,1.24059,5.13333,1.52805,7.61656,0.45426 c-0.54597,0.7916-1.09277,1.58469-1.64019,2.3784c-3.6857,5.34433,6.45189,9.99661,10.10681,4.61008 c0.52798-0.77821,1.05528-1.5554,1.58186-2.33115c2.52115,1.62984,6.56366,1.76918,8.60913-1.19982 c0.21723-0.3152,0.43961-0.62846,0.65726-0.94333c2.23709,1.21331,5.37304,1.3111,7.35387-0.64866 c2.88476,1.02158,7.20704,0.45592,8.98939-2.49968c0.22685-0.37615,0.47992-0.74153,0.7179-1.11282 c2.25285,0.52809,4.90883,0.10536,6.63205-1.87744c2.44655-2.81516,4.96553-5.56683,7.55157-8.25925 c1.31317-0.04124,2.60046-0.4212,3.5772-1.22504c2.10741-1.73466,4.20644-3.46195,6.2971-5.18277 C90.85728,64.81457,91.01142,62.15097,88.99007,60.49421z"/><path fill="#ef7f06" d="M124.77006,26.27269c-0.82558,0.82968-1.64178,1.65283-2.44896,2.48579 c-15.1151-0.44516-30.8067-4.38586-45.98569-0.74893c-17.25719,4.13758-28.99318,15.94913-38.40895,27.48952 c-2.24975,2.74886-6.32814,2.53404-8.79671,0.94046c11.1203-9.68797,21.39669-19.56716,30.78707-29.57974 c1.49022-1.60149,3.08356-3.27893,5.45575-4.08977c1.57657-0.53315,3.35961-0.62975,5.09294-0.7114 c17.49862-0.82434,34.71063-0.8666,51.57782-0.16036C124.88796,22.01839,126.47231,24.53908,124.77006,26.27269z"/><path fill="#d3d3d3" d="M128.80969,57.73851c-1.81693,3.75602-5.24063,6.91094-8.57748,10.03024 c-8.33501,7.80212-16.52039,15.93291-24.51572,24.38106c-2.4392-1.23646-3.79552-3.98138-1.74306-6.30365 c-3.18421-0.78976-5.43919-3.45048-2.83899-6.17656c12.71934-13.34069,24.28754-27.04843,27.76447-42.8457 c0.26838-1.1916,1.00526-1.97171,1.97601-2.41336c-0.26544-1.00549-0.58444-2.00385-0.96729-3.01158 c-0.04948-0.11684-0.08803-0.24136-0.1375-0.35818c-1.21913-3.09503,2.14102-4.9719,5.39531-4.82789 c0.46688,0.02393,0.94302,0.08122,1.39629,0.18628c0.90564,4.63801,1.80381,9.30124,2.71629,13.9744 C130.39714,46.13929,131.49144,52.23214,128.80969,57.73851z"/><path fill="#dbdcdd" d="M77.7644,109.79811c-0.02167,0.60164-0.10673,1.29525-0.72363,1.68607 c-0.4594,0.27951-1.08029,0.30621-1.64246,0.32236c-16.04606,0.3997-32.3758,0.81599-48.99615,1.23924 c-4.02143,0.10025-8.13387,0.19225-12.14849-0.03823c3.36886-0.35504,6.73048-0.77446,10.07609-1.3049 c9.2892-1.45901,18.20854-3.03799,27.41419-3.1943c7.15434-0.11501,18.74022,0.12366,20.10589-7.14774 c1.18122-6.23786-1.49158-14.16505-3.71145-19.94398c-0.57133-1.48847-0.14633-2.7308,0.82674-3.64884 c2.21906,0.08309,4.42989,0.2187,6.63274,0.40751C77.4556,88.50893,78.19563,99.08661,77.7644,109.79811z"/><path fill="#202020" d="M126.96711,26.60932c1.59426-3.02253-0.87495-6.41346-4.64355-6.72119 c-0.10059-0.00459-2.05344-0.09376-1.95282-0.08984c-11.01074-0.43994-25.19647-0.56494-40.24725,0.00537 c-11.60692,0.45827-14.47852,0.36083-17.72278,2.49854c-1.89069,1.25195-3.20813,2.86182-4.48981,4.21191 C30.94558,55.60778,8.12084,72.44727,3.44776,77.13618c-0.3089,0.14404-0.35712,0.30371-0.3634,0.46924l0,0 c-0.00006,0-0.00006,0-0.00012,0c-1.1437-0.08573-0.41911,21.53499-0.41681,21.63721 c0.25056,11.98085-2.89097,15.51669,21.18842,15.32959c56.82868-0.76624,53.71279-0.46051,55.07111-2.23682 c2.89616-1.57182,9.89922-8.76481,12.14307-11.08203c3.92755-4.0459,8.95966-9.55029,15.63007-16.76758 c3.67157-3.93604,8.34491-9.04199,13.56934-14.15674c10.174-10.15734,13.89169-13.23897,10.18208-29.88037 C129.70624,37.21693,127.96259,29.74788,126.96711,26.60932z M80.23829,23.55463 c20.75667-0.50125,41.47142,0.37118,41.36871,0.36719c0.10339,0.01431,1.41019,0.01464,1.74634,0.69434 c0.0246,0.05245,0.06023,0.10378,0.00598,0.15088c-0.01377,0.10018-0.46942,0.50203-12.80054,13.08057 C99.246,49.46603,95.75149,53.03008,89.82795,59.2143c-6.94036-2.68212-57.6897-1.90107-60.07935-1.77979 C73.39526,20.70888,55.76052,24.1751,80.23829,23.55463z M28.70326,58.31342c11.08784,2.86865,46.01056,3.38694,58.88947,3.24072 c-2.87368,3.01608-11.28532,11.83678-13.70258,15.14111c-1.14742-0.68462-2.46526-0.94716-3.79089-0.93457 c-20.65051-0.45114-62.53119,0.6095-65.66327,1.12012C11.13591,72.56808,22.61478,63.40282,28.70326,58.31342z M75.80457,109.76411 c0.00287,0.02148-0.00311,0.04736-0.02295,0.0625c-64.86499,2.19478-70.66178,3.7343-70.85779-2.854 c-0.15047-4.27588-1.72028-28.93901-1.73462-29.04053c0.82018,0.93425,8.87173,1.29772,10.22937,1.36426 c11.19629,0.5752,26.47387,0.1731,42.39618,0.27588c7.50207,0.0679,10.07432,0.1386,14.86316,0.271 c1.01911,0.07494,1.63956,0.64828,1.66864,0.93506C72.36134,80.67825,76.03169,97.90449,75.80457,109.76411z M79.77741,108.34467 c-0.12437-1.85448,0.60984-6.14877-2.40057-22.79053c-1.00485-5.41766-0.9647-6.45591-2.15186-7.75732 c3.36182-2.58347,12.0078-11.07923,15.04211-14.05908c-0.10722,7.03937,1.25606,24.10056,3.02643,29.42725 C89.07854,97.8535,82.05648,105.63142,79.77741,108.34467z M117.68031,67.61274 c-7.43861,6.88821-14.55797,14.67146-21.45551,22.30078c-0.39148-7.95538-2.84758-22.31313-4.47302-27.63623 c2.21289-2.18066,4.68951-4.63574,7.47742-7.41504c5.34162-5.3577,21.74982-21.79634,27.10547-27.31006 c0.34369,3.48571,1.33336,9.86099,1.88117,13.32861C130.6095,56.55507,127.73534,58.17387,117.68031,67.61274z"/></svg>