<svg xmlns="http://www.w3.org/2000/svg" xmlns:xlink="http://www.w3.org/1999/xlink" viewBox="0,0,256,256" width="64px" height="64px" fill-rule="none"><g fill="none" fill-rule="none" stroke="none" stroke-width="1" stroke-linecap="butt" stroke-linejoin="miter" stroke-miterlimit="10" stroke-dasharray="" stroke-dashoffset="0" font-family="none" font-weight="none" font-size="none" text-anchor="none" style="mix-blend-mode: normal"><g><path d="M62.171,173.105c-0.974,11.564 -13.025,13.39 -13.025,13.39c10.346,0.487 12.925,14.059 12.925,14.059c0.221,-9.677 13.321,-14.202 13.321,-14.202c-9.813,-0.588 -13.221,-13.247 -13.221,-13.247z" fill="#a73cc2" fill-rule="nonzero"></path><path d="M75.482,184.854c-8.604,-0.514 -11.832,-12.024 -11.863,-12.141c-0.19,-0.703 -0.854,-1.163 -1.584,-1.102c-0.725,0.066 -1.298,0.642 -1.359,1.367c-0.859,10.215 -11.312,11.964 -11.754,12.033c-0.763,0.115 -1.313,0.79 -1.273,1.561c0.04,0.77 0.657,1.384 1.428,1.421c9.028,0.425 11.499,12.718 11.522,12.842c0.138,0.711 0.76,1.217 1.473,1.217c0.042,0 0.084,-0.001 0.126,-0.005c0.765,-0.064 1.357,-0.693 1.375,-1.46c0.193,-8.508 12.19,-12.777 12.312,-12.819c0.676,-0.235 1.092,-0.915 0.994,-1.623c-0.1,-0.707 -0.683,-1.248 -1.397,-1.291zM61.917,195.2c-1.357,-3.13 -3.709,-6.908 -7.588,-8.876c2.932,-1.405 6.409,-3.913 8.202,-8.273c1.551,3.071 4.2,6.88 8.334,8.722c-3.007,1.64 -6.922,4.405 -8.948,8.427z" fill-opacity="0" fill="#3a312a" fill-rule="nonzero"></path><path d="M40.472,190.085c-0.689,8.179 -9.212,9.471 -9.212,9.471c7.318,0.344 9.142,9.944 9.142,9.944c0.156,-6.845 9.422,-10.045 9.422,-10.045c-6.941,-0.416 -9.352,-9.37 -9.352,-9.37z" fill="#a73cc2" fill-rule="nonzero"></path><path d="M49.914,197.957c-5.744,-0.343 -7.955,-8.125 -7.993,-8.263c-0.19,-0.703 -0.863,-1.169 -1.582,-1.103c-0.726,0.065 -1.3,0.642 -1.361,1.368c-0.579,6.871 -7.646,8.067 -7.942,8.114c-0.763,0.115 -1.313,0.79 -1.273,1.561c0.04,0.77 0.657,1.384 1.428,1.421c6.035,0.284 7.724,8.643 7.739,8.726c0.136,0.712 0.759,1.22 1.473,1.22c0.041,0 0.083,-0.001 0.125,-0.005c0.765,-0.063 1.358,-0.694 1.376,-1.461c0.13,-5.71 8.331,-8.634 8.412,-8.662c0.676,-0.234 1.093,-0.913 0.996,-1.622c-0.099,-0.709 -0.684,-1.251 -1.398,-1.294zM40.329,204.752c-0.924,-1.886 -2.34,-3.947 -4.447,-5.28c1.856,-1.041 3.697,-2.63 4.871,-4.917c1.057,1.874 2.654,3.955 4.941,5.224c-1.85,1.101 -3.989,2.741 -5.365,4.973z" fill-opacity="0" fill="#3a312a" fill-rule="nonzero"></path><path d="M40.472,163.428c-0.689,8.179 -9.212,9.471 -9.212,9.471c7.318,0.345 9.142,9.944 9.142,9.944c0.156,-6.845 9.422,-10.046 9.422,-10.046c-6.941,-0.415 -9.352,-9.369 -9.352,-9.369z" fill="#a73cc2" fill-rule="nonzero"></path><path d="M49.914,171.3c-5.767,-0.345 -7.972,-8.185 -7.993,-8.265c-0.19,-0.702 -0.863,-1.165 -1.582,-1.102c-0.726,0.065 -1.3,0.642 -1.361,1.368c-0.579,6.871 -7.646,8.067 -7.942,8.114c-0.763,0.115 -1.313,0.79 -1.273,1.561c0.04,0.77 0.657,1.384 1.428,1.421c6.035,0.284 7.724,8.644 7.739,8.726c0.136,0.713 0.759,1.22 1.473,1.22c0.041,0 0.083,-0.002 0.125,-0.005c0.765,-0.064 1.358,-0.694 1.376,-1.461c0.13,-5.709 8.331,-8.634 8.412,-8.662c0.676,-0.234 1.093,-0.913 0.996,-1.622c-0.099,-0.709 -0.684,-1.25 -1.398,-1.293zM40.329,178.095c-0.924,-1.885 -2.34,-3.947 -4.447,-5.28c1.856,-1.041 3.697,-2.63 4.871,-4.917c1.057,1.874 2.654,3.955 4.941,5.224c-1.849,1.101 -3.989,2.74 -5.365,4.973z" fill-opacity="0" fill="#3a312a" fill-rule="nonzero"></path><path d="M143.35,32c-42.815,0 -79.169,28.176 -91.506,66.958l-16.438,-28.211c-2.798,-4.8 -8.956,-6.426 -13.757,-3.627c-4.801,2.797 -6.425,8.956 -3.628,13.757l10.553,18.113l6.676,11.456l13.363,22.933c1.87,3.208 5.239,4.997 8.703,4.997c1.719,0 3.462,-0.441 5.055,-1.37l52.503,-30.593c4.801,-2.797 6.425,-8.956 3.628,-13.757c-2.798,-4.8 -8.957,-6.426 -13.757,-3.627l-34.96,20.37c8.317,-32.875 38.141,-57.278 73.566,-57.278c41.84,0 75.879,34.039 75.879,75.879c0,41.84 -34.039,75.879 -75.879,75.879c-5.556,0 -10.06,4.504 -10.06,10.06c0,5.556 4.505,10.06 10.06,10.06c52.935,0 96,-43.065 96,-96c-0.002,-52.934 -43.067,-95.999 -96.001,-95.999z" fill="#94d82d" fill-rule="nonzero"></path><path d="M143.35,30.5c-21.085,0 -41.168,6.65 -58.078,19.232c-15.447,11.494 -27.353,27.597 -33.794,45.62l-14.777,-25.36c-1.555,-2.668 -4.056,-4.571 -7.041,-5.358c-2.984,-0.787 -6.1,-0.365 -8.767,1.19c-2.669,1.554 -4.572,4.055 -5.359,7.041c-0.787,2.986 -0.364,6.1 1.19,8.768l10.554,18.113c0.417,0.716 1.337,0.958 2.051,0.541c0.716,-0.417 0.958,-1.335 0.541,-2.051l-10.554,-18.115c-1.151,-1.976 -1.465,-4.281 -0.882,-6.492c0.584,-2.211 1.993,-4.062 3.97,-5.214c1.975,-1.151 4.28,-1.464 6.491,-0.881c2.211,0.583 4.063,1.993 5.214,3.968l16.438,28.211c0.298,0.511 0.865,0.804 1.46,0.735c0.59,-0.065 1.086,-0.471 1.266,-1.036c5.947,-18.698 17.947,-35.487 33.789,-47.273c16.389,-12.194 35.853,-18.639 56.288,-18.639c52.107,0 94.5,42.393 94.5,94.5c0,52.107 -42.393,94.5 -94.5,94.5c-4.721,0 -8.56,-3.84 -8.56,-8.56c0,-4.72 3.84,-8.561 8.56,-8.561c42.667,0 77.379,-34.712 77.379,-77.379c0,-42.667 -34.712,-77.379 -77.379,-77.379c-35.471,0 -66.319,24.019 -75.02,58.411c-0.148,0.585 0.069,1.203 0.552,1.566c0.482,0.363 1.135,0.402 1.657,0.098l34.96,-20.371c4.081,-2.377 9.329,-0.991 11.707,3.086c1.151,1.976 1.464,4.282 0.881,6.493c-0.583,2.211 -1.993,4.062 -3.969,5.214l-52.503,30.592c-1.309,0.762 -2.795,1.165 -4.3,1.165c-3.04,0 -5.878,-1.629 -7.407,-4.252l-13.362,-22.933c-0.418,-0.716 -1.337,-0.958 -2.051,-0.54c-0.716,0.417 -0.958,1.335 -0.541,2.051l13.362,22.933c2.064,3.542 5.895,5.741 9.999,5.741c2.035,0 4.044,-0.544 5.81,-1.573l52.503,-30.593c2.669,-1.555 4.572,-4.055 5.359,-7.041c0.787,-2.986 0.365,-6.1 -1.189,-8.768c-3.212,-5.509 -10.305,-7.378 -15.809,-4.168l-31.768,18.51c9.517,-31.162 38.258,-52.622 71.128,-52.622c41.013,0 74.379,33.367 74.379,74.379c0,41.012 -33.366,74.379 -74.379,74.379c-6.374,0 -11.56,5.186 -11.56,11.561c0,6.374 5.186,11.56 11.56,11.56c53.762,0 97.5,-43.738 97.5,-97.5c0.001,-53.761 -43.738,-97.499 -97.499,-97.499z" fill-opacity="0" fill="#3a312a" fill-rule="nonzero"></path><path d="M194.884,99.366c-7.442,-3.999 -19.819,-3.326 -26.116,3.072c-0.004,0.002 -0.027,-0.009 -0.034,-0.017c-3.951,-8.055 -15.468,-12.609 -23.79,-11.175c-10.598,1.826 -17.667,11.539 -18.343,21.934c-1.058,16.257 11.884,34.712 22.271,45.578c2.371,2.48 5.833,6.589 9.463,7.258c0.003,0.001 0.155,0.025 0.157,0.026c2.417,0.341 5.24,-0.769 7.753,-2.023l11.083,-6.265c11.821,-7.531 24.604,-18.86 28.004,-31.771c2.653,-10.075 -0.975,-21.527 -10.448,-26.617z" fill-opacity="0" fill="#ef6d7a" fill-rule="evenodd"></path><path d="M195.594,98.045c-7.116,-3.824 -19.228,-3.753 -26.457,2.045c-5.021,-7.789 -16.485,-11.695 -24.446,-10.322c-10.759,1.854 -18.812,11.441 -19.585,23.315c-0.328,5.047 0.337,23.334 22.684,46.712c0.265,0.277 0.544,0.576 0.836,0.888c2.42,2.585 5.735,6.126 9.438,6.809c0.012,0.002 0.101,0.017 0.112,0.019c0.01,0.001 0.098,0.016 0.108,0.017c0.374,0.053 0.752,0.077 1.132,0.077c2.629,0 5.348,-1.17 7.499,-2.243c0.742,-0.37 1.043,-1.271 0.674,-2.012c-0.37,-0.741 -1.271,-1.044 -2.012,-0.673c-1.912,0.954 -4.702,2.188 -6.969,1.865c-2.733,-0.504 -5.658,-3.628 -7.793,-5.909c-0.3,-0.32 -0.586,-0.626 -0.858,-0.911c-11.202,-11.719 -22.826,-29.549 -21.857,-44.444c0.671,-10.317 7.862,-18.961 17.101,-20.553c9.294,-1.597 19.154,4.173 22.188,10.358c0.065,0.133 0.149,0.255 0.25,0.363c0.454,0.487 1.208,0.63 1.801,0.335c0.147,-0.074 0.282,-0.172 0.398,-0.29c4.834,-4.912 16.02,-7.271 24.336,-2.803c8.258,4.437 12.34,14.914 9.708,24.913c-3.703,14.069 -18.73,25.392 -27.358,30.888c-0.699,0.445 -0.904,1.372 -0.459,2.071c0.444,0.699 1.375,0.903 2.07,0.459c8.998,-5.732 24.685,-17.598 28.647,-32.655c3.03,-11.507 -1.571,-23.152 -11.188,-28.319z" fill-opacity="0" fill="#3a312a" fill-rule="nonzero"></path><path d="M146.03,136.022c-2.841,-6.964 -9.904,-11.998 -17.579,-10.824c-6.03,0.922 -12.879,6.682 -13.736,13.105c-0.002,0.003 -0.019,0.007 -0.027,0.005c-5.775,-2.933 -14.398,-0.563 -18.577,3.875c-5.323,5.653 -5.187,14.325 -1.066,20.617c6.444,9.84 21.92,14.873 32.63,16.635c2.444,0.402 6.225,1.271 8.61,0.082c0.002,-0.001 0.1,-0.052 0.102,-0.053c2.333,-1.289 3.764,-4.894 4.819,-7.135c4.627,-9.819 9.268,-25.416 4.824,-36.307z" fill-opacity="0" fill="#ef6d7a" fill-rule="evenodd"></path><path d="M147.419,135.455c-3.319,-8.134 -11.221,-12.959 -19.194,-11.74c-5.896,0.902 -12.726,6.011 -14.604,12.527c-6.43,-2.152 -14.516,0.574 -18.601,4.913c-5.537,5.879 -6.043,15.118 -1.229,22.466c8.007,12.227 27.773,16.328 33.642,17.294l0.862,0.149c1.433,0.251 3.159,0.554 4.85,0.554c1.35,0 2.676,-0.193 3.81,-0.759c0.001,0 0.158,-0.083 0.159,-0.083c2.501,-1.382 3.994,-4.639 5.085,-7.017l0.365,-0.792c2.534,-5.378 10.375,-23.98 4.855,-37.512zM139.849,171.689l-0.379,0.82c-0.917,1.999 -2.172,4.737 -3.855,5.665c-1.672,0.834 -4.638,0.315 -6.803,-0.066l-0.894,-0.153c-11.462,-1.887 -25.788,-7.075 -31.618,-15.978c-3.986,-6.085 -3.606,-13.978 0.903,-18.766c2.565,-2.724 7.274,-4.693 11.654,-4.693c1.836,0 3.613,0.346 5.15,1.127c0.127,0.065 0.263,0.111 0.403,0.137c0.631,0.118 1.289,-0.18 1.607,-0.735c0.096,-0.169 0.158,-0.354 0.184,-0.546c0.773,-5.791 7.225,-11.017 12.477,-11.82c6.502,-0.997 13.215,3.172 15.964,9.907c4.019,9.853 0.16,24.592 -4.793,35.101z" fill-opacity="0" fill="#3a312a" fill-rule="nonzero"></path><path d="M142.991,33.666c-2.54,0.01 -5.06,0.119 -7.559,0.329c48.664,3.615 87.229,44.258 87.418,93.868c0.183,48.19 -35.915,88.207 -82.562,94.105c1.052,0.456 2.213,0.702 3.423,0.697c52.11,-0.198 94.338,-42.749 94.14,-94.859c-0.2,-52.11 -42.751,-94.338 -94.86,-94.14z" fill="#7dbf19" fill-rule="nonzero"></path></g></g></svg>